<svg width="95" height="41" viewBox="0 0 95 41" fill="none" xmlns="http://www.w3.org/2000/svg">
<rect y="0.5" width="40" height="40" rx="20" fill="#0E1422"/>
<path d="M24.4769 11.8485L18.204 8.05509C17.6119 7.69292 16.9388 7.5015 16.2532 7.50031C14.2094 7.50031 12.3348 9.21225 12.3348 11.605V25.8073L24.4769 18.4669C26.9083 16.9947 26.9083 13.32 24.4769 11.8485ZM15.8484 18.948V11.3679L22.1163 15.1567L15.8484 18.948Z" fill="white"/>
<path d="M27.8489 33.4844C27.8489 33.5273 15.9908 33.466 15.9908 33.466L14.9434 33.3425C13.2467 33.144 11.9443 31.6233 12.002 29.8346C12.002 29.7917 12.0057 29.7519 12.0081 29.7103C12.0547 28.9365 12.3261 28.1961 12.7858 27.5885C12.9725 27.3461 13.2009 27.1425 13.4592 26.9882L22.4782 21.5725C24.3414 20.4535 25.8931 20.062 26.6999 18.0341C26.9974 17.2757 27.126 16.4562 27.0757 15.6379L27.0446 15.0865L27.9651 20.4204C28.083 21.3264 27.9013 22.2537 27.4211 23.0169C27.1326 23.4785 26.7475 23.8653 26.2951 24.1479L15.8295 29.3943C15.8191 29.4006 15.809 29.4074 15.7993 29.4149C15.5127 29.6293 15.6896 30.1069 16.0403 30.0867L24.7515 30.1403C26.4433 30.0417 27.8526 31.7112 27.8489 33.4844Z" fill="white"/>
<path d="M53 28V27.66L59.84 16.14H53.6V13.6H64.6V13.94L57.8 25.44H64.4V28H53ZM67.6738 32.8L69.7538 27.08L69.7938 28.76L65.0938 17.2H67.9138L71.0738 25.38H70.4338L73.5738 17.2H76.2938L70.1938 32.8H67.6738ZM77 28V17.2H79.4V19.84L79.14 19.5C79.28 19.1267 79.4667 18.7867 79.7 18.48C79.9333 18.1733 80.22 17.92 80.56 17.72C80.82 17.56 81.1033 17.4367 81.41 17.35C81.7167 17.2567 82.0333 17.2 82.36 17.18C82.6867 17.1533 83.0133 17.16 83.34 17.2V19.74C83.04 19.6467 82.69 19.6167 82.29 19.65C81.8967 19.6767 81.54 19.7667 81.22 19.92C80.9 20.0667 80.63 20.2633 80.41 20.51C80.19 20.75 80.0233 21.0367 79.91 21.37C79.7967 21.6967 79.74 22.0667 79.74 22.48V28H77ZM87.3273 28.3C86.554 28.3 85.8973 28.1533 85.3573 27.86C84.824 27.56 84.4173 27.1633 84.1373 26.67C83.864 26.17 83.7273 25.62 83.7273 25.02C83.7273 24.52 83.804 24.0633 83.9573 23.65C84.1107 23.2367 84.3573 22.8733 84.6973 22.56C85.044 22.24 85.5073 21.9733 86.0873 21.76C86.4873 21.6133 86.964 21.4833 87.5173 21.37C88.0707 21.2567 88.6973 21.15 89.3973 21.05C90.0973 20.9433 90.8673 20.8267 91.7073 20.7L90.7273 21.24C90.7273 20.6 90.574 20.13 90.2673 19.83C89.9607 19.53 89.4473 19.38 88.7273 19.38C88.3273 19.38 87.9107 19.4767 87.4773 19.67C87.044 19.8633 86.7407 20.2067 86.5673 20.7L84.1073 19.92C84.3807 19.0267 84.894 18.3 85.6473 17.74C86.4007 17.18 87.4273 16.9 88.7273 16.9C89.6807 16.9 90.5273 17.0467 91.2673 17.34C92.0073 17.6333 92.5673 18.14 92.9473 18.86C93.1607 19.26 93.2873 19.66 93.3273 20.06C93.3673 20.46 93.3873 20.9067 93.3873 21.4V28H91.0073V25.78L91.3473 26.24C90.8207 26.9667 90.2507 27.4933 89.6373 27.82C89.0307 28.14 88.2607 28.3 87.3273 28.3ZM87.9073 26.16C88.4073 26.16 88.8273 26.0733 89.1673 25.9C89.514 25.72 89.7873 25.5167 89.9873 25.29C90.194 25.0633 90.334 24.8733 90.4073 24.72C90.5473 24.4267 90.6273 24.0867 90.6473 23.7C90.674 23.3067 90.6873 22.98 90.6873 22.72L91.4873 22.92C90.6807 23.0533 90.0273 23.1667 89.5273 23.26C89.0273 23.3467 88.624 23.4267 88.3173 23.5C88.0107 23.5733 87.7407 23.6533 87.5073 23.74C87.2407 23.8467 87.024 23.9633 86.8573 24.09C86.6973 24.21 86.5773 24.3433 86.4973 24.49C86.424 24.6367 86.3873 24.8 86.3873 24.98C86.3873 25.2267 86.4473 25.44 86.5673 25.62C86.694 25.7933 86.8707 25.9267 87.0973 26.02C87.324 26.1133 87.594 26.16 87.9073 26.16Z" fill="#0E1422"/>
</svg>
